<svg width="32" height="32" viewBox="0 0 32 32" fill="none" xmlns="http://www.w3.org/2000/svg">
<path d="M3 4H10V8H3V4Z" fill="white"/>
<path d="M22 4H29V8H22V4Z" fill="white"/>
<path d="M21 3H11V11H21V3ZM19 8H17V10H15V8H13V6H15V4H17V6H19V8Z" fill="white"/>
<path d="M22 12H10V9H3V25H14V27H3V29H15V13H17V29H29V9H22V12ZM6 14H13V19H6V14ZM14 23C14 23.2652 13.8946 23.5196 13.7071 23.7071C13.5196 23.8946 13.2652 24 13 24C12.7348 24 12.4804 23.8946 12.2929 23.7071C12.1054 23.5196 12 23.2652 12 23V22C12 21.7348 12.1054 21.4804 12.2929 21.2929C12.4804 21.1054 12.7348 21 13 21C13.2652 21 13.5196 21.1054 13.7071 21.2929C13.8946 21.4804 14 21.7348 14 22V23ZM19 21C19.2652 21 19.5196 21.1054 19.7071 21.2929C19.8946 21.4804 20 21.7348 20 22V23C20 23.2652 19.8946 23.5196 19.7071 23.7071C19.5196 23.8946 19.2652 24 19 24C18.7348 24 18.4804 23.8946 18.2929 23.7071C18.1054 23.5196 18 23.2652 18 23V22C18 21.7348 18.1054 21.4804 18.2929 21.2929C18.4804 21.1054 18.7348 21 19 21ZM20 27H18V25H20C20.2652 25 20.5196 25.1054 20.7071 25.2929C20.8946 25.4804 21 25.7348 21 26C21 26.2652 20.8946 26.5196 20.7071 26.7071C20.5196 26.8946 20.2652 27 20 27ZM23 27C22.8022 27 22.6089 26.9414 22.4444 26.8315C22.28 26.7216 22.1518 26.5654 22.0761 26.3827C22.0004 26.2 21.9806 25.9989 22.0192 25.8049C22.0578 25.6109 22.153 25.4327 22.2929 25.2929C22.4327 25.153 22.6109 25.0578 22.8049 25.0192C22.9989 24.9806 23.2 25.0004 23.3827 25.0761C23.5654 25.1518 23.7216 25.28 23.8315 25.4444C23.9414 25.6089 24 25.8022 24 26C24 26.2652 23.8946 26.5196 23.7071 26.7071C23.5196 26.8946 23.2652 27 23 27ZM27 26C27 26.1978 26.9414 26.3911 26.8315 26.5556C26.7216 26.72 26.5654 26.8482 26.3827 26.9239C26.2 26.9996 25.9989 27.0194 25.8049 26.9808C25.6109 26.9422 25.4327 26.847 25.2929 26.7071C25.153 26.5673 25.0578 26.3891 25.0192 26.1951C24.9806 26.0011 25.0004 25.8 25.0761 25.6173C25.1518 25.4346 25.28 25.2784 25.4444 25.1685C25.6089 25.0586 25.8022 25 26 25C26.2652 25 26.5196 25.1054 26.7071 25.2929C26.8946 25.4804 27 25.7348 27 26ZM26 19H19V14H26V19Z" fill="white"/>
</svg>
