<svg width="16" height="16" viewBox="0 0 16 16" fill="none" xmlns="http://www.w3.org/2000/svg">
<path d="M1.5 2H5V4H1.5V2Z" fill="#0B2439"/>
<path d="M11 2H14.5V4H11V2Z" fill="#0B2439"/>
<path d="M10.5 1.5H5.5V5.5H10.5V1.5ZM9.5 4H8.5V5H7.5V4H6.5V3H7.5V2H8.5V3H9.5V4Z" fill="#0B2439"/>
<path d="M11 6H5V4.5H1.5V12.5H7V13.5H1.5V14.5H7.5V6.5H8.5V14.5H14.5V4.5H11V6ZM3 7H6.5V9.5H3V7ZM7 11.5C7 11.6326 6.94732 11.7598 6.85355 11.8536C6.75979 11.9473 6.63261 12 6.5 12C6.36739 12 6.24021 11.9473 6.14645 11.8536C6.05268 11.7598 6 11.6326 6 11.5V11C6 10.8674 6.05268 10.7402 6.14645 10.6464C6.24021 10.5527 6.36739 10.5 6.5 10.5C6.63261 10.5 6.75979 10.5527 6.85355 10.6464C6.94732 10.7402 7 10.8674 7 11V11.5ZM9.5 10.5C9.63261 10.5 9.75979 10.5527 9.85355 10.6464C9.94732 10.7402 10 10.8674 10 11V11.5C10 11.6326 9.94732 11.7598 9.85355 11.8536C9.75979 11.9473 9.63261 12 9.5 12C9.36739 12 9.24021 11.9473 9.14645 11.8536C9.05268 11.7598 9 11.6326 9 11.5V11C9 10.8674 9.05268 10.7402 9.14645 10.6464C9.24021 10.5527 9.36739 10.5 9.5 10.5ZM10 13.5H9V12.5H10C10.1326 12.5 10.2598 12.5527 10.3536 12.6464C10.4473 12.7402 10.5 12.8674 10.5 13C10.5 13.1326 10.4473 13.2598 10.3536 13.3536C10.2598 13.4473 10.1326 13.5 10 13.5ZM11.5 13.5C11.4011 13.5 11.3044 13.4707 11.2222 13.4157C11.14 13.3608 11.0759 13.2827 11.0381 13.1913C11.0002 13.1 10.9903 12.9994 11.0096 12.9025C11.0289 12.8055 11.0765 12.7164 11.1464 12.6464C11.2164 12.5765 11.3055 12.5289 11.4025 12.5096C11.4994 12.4903 11.6 12.5002 11.6913 12.5381C11.7827 12.5759 11.8608 12.64 11.9157 12.7222C11.9707 12.8044 12 12.9011 12 13C12 13.1326 11.9473 13.2598 11.8536 13.3536C11.7598 13.4473 11.6326 13.5 11.5 13.5ZM13.5 13C13.5 13.0989 13.4707 13.1956 13.4157 13.2778C13.3608 13.36 13.2827 13.4241 13.1913 13.4619C13.1 13.4998 12.9994 13.5097 12.9025 13.4904C12.8055 13.4711 12.7164 13.4235 12.6464 13.3536C12.5765 13.2836 12.5289 13.1945 12.5096 13.0975C12.4903 13.0006 12.5002 12.9 12.5381 12.8087C12.5759 12.7173 12.64 12.6392 12.7222 12.5843C12.8044 12.5293 12.9011 12.5 13 12.5C13.1326 12.5 13.2598 12.5527 13.3536 12.6464C13.4473 12.7402 13.5 12.8674 13.5 13ZM13 9.5H9.5V7H13V9.5Z" fill="#0B2439"/>
</svg>
