<svg width="16" height="16" viewBox="0 0 16 16" fill="none" xmlns="http://www.w3.org/2000/svg">
<path d="M8.06647 7.53333C8.964 7.53333 9.74119 7.21142 10.3762 6.57627C11.0112 5.94124 11.3331 5.16423 11.3331 4.26656C11.3331 3.36921 11.0112 2.5921 10.3761 1.95685C9.74099 1.32192 8.9639 1 8.06647 1C7.16884 1 6.39185 1.32192 5.75683 1.95696C5.12182 2.59199 4.7998 3.36911 4.7998 4.26656C4.7998 5.16423 5.12182 5.94134 5.75694 6.57638C6.39206 7.21131 7.16915 7.53333 8.06647 7.53333V7.53333Z" fill="#0B2439"/>
<path d="M14.1039 11.6627C14.0843 11.3812 14.0446 11.0742 13.9861 10.7501C13.9271 10.4235 13.8511 10.1147 13.7601 9.83249C13.6661 9.54081 13.5383 9.25276 13.3803 8.97673C13.2163 8.69023 13.0237 8.44075 12.8075 8.23546C12.5815 8.0207 12.3048 7.84802 11.9848 7.72207C11.6659 7.59678 11.3125 7.53331 10.9345 7.53331C10.7861 7.53331 10.6425 7.59381 10.3652 7.77309C10.1946 7.88362 9.99495 8.01144 9.77215 8.15282C9.58164 8.27337 9.32356 8.38632 9.00479 8.48858C8.69378 8.58852 8.37801 8.63921 8.06633 8.63921C7.75466 8.63921 7.439 8.58852 7.12766 8.48858C6.80922 8.38643 6.55114 8.27348 6.36085 8.15293C6.14016 8.01287 5.94044 7.88505 5.76724 7.77298C5.4903 7.5937 5.34661 7.5332 5.19816 7.5332C4.82002 7.5332 4.46674 7.59678 4.14797 7.72218C3.8282 7.84791 3.55137 8.02059 3.32513 8.23557C3.1091 8.44097 2.91637 8.69034 2.75261 8.97673C2.59472 9.25276 2.4669 9.5407 2.37281 9.8326C2.28194 10.1148 2.20593 10.4235 2.1469 10.7501C2.08843 11.0738 2.04871 11.3809 2.02907 11.663C2.00976 11.9394 2 12.2262 2 12.5159C2 13.2698 2.24133 13.8802 2.71721 14.3303C3.18721 14.7745 3.80912 14.9999 4.56538 14.9999H11.568C12.3242 14.9999 12.9459 14.7746 13.416 14.3303C13.892 13.8805 14.1333 13.2701 14.1333 12.5158C14.1332 12.2248 14.1233 11.9377 14.1039 11.6627V11.6627Z" fill="#0B2439"/>
</svg>
